HIERARCHY
ROOT Hips
{
	OFFSET 0.00000 0.00000 0.00000
	CHANNELS 6 Xposition Yposition Zposition Zrotation Yrotation Xrotation 
	JOINT LHipJoint
	{
		OFFSET 0 0 0
		CHANNELS 3 Zrotation Yrotation Xrotation
		JOINT LeftUpLeg
		{
			OFFSET 1.84395 -1.68683 0.74144
			CHANNELS 3 Zrotation Yrotation Xrotation
			JOINT LeftLeg
			{
				OFFSET 2.27037 -6.23779 0.00000
				CHANNELS 3 Zrotation Yrotation Xrotation
				JOINT LeftFoot
				{
					OFFSET 2.56918 -7.05877 0.00000
					CHANNELS 3 Zrotation Yrotation Xrotation
					JOINT LeftToeBase
					{
						OFFSET 0.22276 -0.61202 1.71784
						CHANNELS 3 Zrotation Yrotation Xrotation
						End Site
						{
							OFFSET 0.00000 -0.00000 0.91613
						}
					}
				}
			}
		}
	}
	JOINT RHipJoint
	{
		OFFSET 0 0 0
		CHANNELS 3 Zrotation Yrotation Xrotation
		JOINT RightUpLeg
		{
			OFFSET -1.76833 -1.68684 0.74144
			CHANNELS 3 Zrotation Yrotation Xrotation
			JOINT RightLeg
			{
				OFFSET -2.49360 -6.85110 0.00000
				CHANNELS 3 Zrotation Yrotation Xrotation
				JOINT RightFoot
				{
					OFFSET -2.55538 -7.02085 0.00000
					CHANNELS 3 Zrotation Yrotation Xrotation
					JOINT RightToeBase
					{
						OFFSET -0.21516 -0.59115 1.68050
						CHANNELS 3 Zrotation Yrotation Xrotation
						End Site
						{
							OFFSET -0.00000 -0.00000 0.89604
						}
					}
				}
			}
		}
	}
	JOINT LowerBack
	{
		OFFSET 0 0 0
		CHANNELS 3 Zrotation Yrotation Xrotation
		JOINT Spine
		{
			OFFSET 0.06382 1.72312 -0.19613
			CHANNELS 3 Zrotation Yrotation Xrotation
			JOINT Spine1
			{
				OFFSET -0.00055 1.73507 0.23859
				CHANNELS 3 Zrotation Yrotation Xrotation
				JOINT Neck
				{
					OFFSET 0 0 0
					CHANNELS 3 Zrotation Yrotation Xrotation
					JOINT Neck1
					{
						OFFSET 0.03638 1.65562 0.09633
						CHANNELS 3 Zrotation Yrotation Xrotation
						JOINT Head
						{
							OFFSET 0.06388 1.62807 -0.32386
							CHANNELS 3 Zrotation Yrotation Xrotation
							End Site
							{
								OFFSET 0.00995 1.67644 -0.12021
							}
						}
					}
				}
				JOINT LeftShoulder
				{
					OFFSET 0 0 0
					CHANNELS 3 Zrotation Yrotation Xrotation
					JOINT LeftArm
					{
						OFFSET 3.09648 1.42991 0.28122
						CHANNELS 3 Zrotation Yrotation Xrotation
						JOINT LeftForeArm
						{
							OFFSET 5.11878 -0.00000 -0.00000
							CHANNELS 3 Zrotation Yrotation Xrotation
							JOINT LeftHand
							{
								OFFSET 3.59971 -0.00000 0.00000
								CHANNELS 3 Zrotation Yrotation Xrotation
								JOINT LeftFingerBase
								{
									OFFSET 0 0 0
									CHANNELS 3 Zrotation Yrotation Xrotation
									JOINT LeftHandIndex1
									{
										OFFSET 0.62877 -0.00000 0.00000
										CHANNELS 3 Zrotation Yrotation Xrotation
										End Site
										{
											OFFSET 0.50693 -0.00000 0.00000
										}
									}
								}
								JOINT LThumb
								{
									OFFSET 0 0 0
									CHANNELS 3 Zrotation Yrotation Xrotation
									End Site
									{
										OFFSET 0.51467 -0.00000 0.51467
									}
								}
							}
						}
					}
				}
				JOINT RightShoulder
				{
					OFFSET 0 0 0
					CHANNELS 3 Zrotation Yrotation Xrotation
					JOINT RightArm
					{
						OFFSET -3.33565 1.14597 0.05047
						CHANNELS 3 Zrotation Yrotation Xrotation
						JOINT RightForeArm
						{
							OFFSET -5.49020 -0.00000 0.00000
							CHANNELS 3 Zrotation Yrotation Xrotation
							JOINT RightHand
							{
								OFFSET -3.20659 -0.00000 -0.00000
								CHANNELS 3 Zrotation Yrotation Xrotation
								JOINT RightFingerBase
								{
									OFFSET 0 0 0
									CHANNELS 3 Zrotation Yrotation Xrotation
									JOINT RightHandIndex1
									{
										OFFSET -0.69188 -0.00000 0.00000
										CHANNELS 3 Zrotation Yrotation Xrotation
										End Site
										{
											OFFSET -0.55781 -0.00000 0.00000
										}
									}
								}
								JOINT RThumb
								{
									OFFSET 0 0 0
									CHANNELS 3 Zrotation Yrotation Xrotation
									End Site
									{
										OFFSET -0.56633 -0.00000 0.56633
									}
								}
							}
						}
					}
				}
			}
		}
	}
}
MOTION
Frames: 6
Frame Time: .0083333
0.6607 17.4792 9.8038 0 0 0 0 0 0 -21 0 0 0 0 0 0 0 0 0 0 0 0 0 0 21 0 0 0 0 0 0 0 0 0 0 0 0 0 0 0 0 0 0 0 0 0 0 -16 0 0 21 0 0 11 0 0 0 -8 0 0 0 0 0 0 0 0 0 0 0 0 0 0 0 0 0 0 0 0 8 0 0 0 0 0 0 0 0 0 0 0 0 0 0 0 0 0
0.6607 17.4792 9.8038 -9.9496 -1.8677 12.2512 0.0000 0.0000 0.0000 -25.2084 -47.8609 33.4706 0.0792 -1.8159 -4.9973 -3.2588 46.4168 -56.2778 0.8751 5.9639 16.6798 0.0000 0.0000 0.0000 28.7880 27.4633 6.2501 -0.0002 -0.0973 0.2673 1.0174 -20.5253 -19.2218 -0.0160 -0.8177 2.2473 7.6756 1.5518 -0.5246 0.3876 2.5699 -10.8349 -4.0824 0.5554 -11.0573 -6.3688 -12.1723 -8.5577 11.3777 -18.1864 17.4032 2.7791 -8.1659 8.4687 -0.0000 -0.0000 0.0000 -90.0343 12.5961 1.7975 11.8193 -19.5331 -2.0415 -0.0000 -0.0000 23.6650 18.9432 -10.7565 -3.6652 -7.1250 0.0000 -0.0000 -5.7339 18.6550 3.6166 -0.0000 -0.0000 0.0000 94.3908 -11.5027 -3.0275 -13.7150 22.3258 -2.7189 0.0000 0.0000 41.5946 9.5277 -30.2442 -4.8322 7.1250 -0.0000 -0.0000 42.6447 -54.8901 -11.9665
0.6574 17.4761 9.8041 -9.8832 -1.8201 12.3201 0.0000 0.0000 0.0000 -24.8632 -47.6825 32.9686 0.0800 -1.8240 -5.0196 -3.5365 46.4280 -55.6439 0.8295 5.8105 16.2355 0.0000 0.0000 0.0000 28.7339 27.6353 6.2713 -0.0002 -0.0863 0.2372 1.0450 -20.7237 -19.3193 -0.0145 -0.7769 2.1351 7.5330 1.4475 -0.6521 0.5108 2.4251 -10.9511 -3.8554 0.4990 -11.1409 -6.6822 -12.0489 -8.0569 11.4451 -17.9753 17.2398 2.9092 -8.1103 8.3387 -0.0000 -0.0000 0.0000 -90.2915 12.9085 1.5208 11.8648 -19.6016 -2.0567 -0.0000 -0.0000 23.5985 18.9207 -10.7076 -3.6441 -7.1250 0.0000 -0.0000 -5.7492 18.7078 3.6197 -0.0000 -0.0000 0.0000 94.1566 -11.8175 -2.6143 -13.7485 22.3741 -2.7317 0.0000 0.0000 41.4480 9.5675 -30.3087 -4.8620 7.1250 -0.0000 -0.0000 42.7373 -54.9316 -12.0470
0.6565 17.4743 9.8049 -9.8471 -1.7618 12.3964 0.0000 0.0000 0.0000 -24.7845 -47.7295 32.8156 0.0792 -1.8152 -4.9951 -3.5704 46.4079 -55.5282 0.8255 5.7969 16.1961 0.0000 0.0000 0.0000 28.6890 27.7408 6.2607 -0.0001 -0.0701 0.1926 1.0640 -20.8589 -19.3854 -0.0152 -0.7958 2.1870 7.4602 1.3430 -0.7889 0.6370 2.2837 -11.0680 -3.6639 0.4385 -11.2178 -6.9990 -11.9169 -7.5869 11.4889 -17.7580 17.1386 3.0299 -8.0495 8.2318 0.0000 0.0000 0.0000 -90.5774 13.2050 1.1266 11.9051 -19.6621 -2.0702 -0.0000 -0.0000 23.6542 18.9182 -10.6560 -3.6263 -7.1250 0.0000 -0.0000 -5.7505 18.7620 3.6136 0.0000 0.0000 0.0000 93.9082 -12.1110 -2.2089 -13.7659 22.3990 -2.7383 0.0000 0.0000 41.3659 9.6288 -30.3317 -4.8970 7.1250 -0.0000 -0.0000 42.8122 -54.9372 -12.0810
0.6546 17.4727 9.8055 -9.8472 -1.6957 12.4745 0.0000 0.0000 0.0000 -24.7064 -47.8322 32.7389 0.0789 -1.8121 -4.9868 -3.5881 46.4196 -55.5059 0.8223 5.7858 16.1642 0.0000 0.0000 0.0000 28.7034 27.9043 6.2741 -0.0001 -0.0621 0.1706 1.0754 -20.9875 -19.5429 -0.0210 -0.9365 2.5740 7.4160 1.2372 -0.9344 0.7746 2.1425 -11.1879 -3.4756 0.3763 -11.2924 -7.3387 -11.7719 -7.1220 11.5454 -17.5337 17.0961 3.1573 -7.9830 8.1475 0.0000 -0.0000 0.0000 -90.8583 13.5310 0.7871 11.9593 -19.7436 -2.0885 -0.0000 -0.0000 23.6533 18.8862 -10.5862 -3.5963 -7.1250 0.0000 -0.0000 -5.7725 18.8375 3.6178 0.0000 -0.0000 0.0000 93.6529 -12.3826 -1.8232 -13.7665 22.3999 -2.7385 0.0000 0.0000 41.3292 9.7334 -30.4162 -4.9633 7.1250 -0.0000 -0.0000 42.9804 -54.9811 -12.1928
0.6510 17.4707 9.8073 -9.8940 -1.6245 12.5696 0.0000 0.0000 0.0000 -24.6063 -48.0166 32.7386 0.0795 -1.8191 -5.0060 -3.4115 46.3332 -55.7784 0.8577 5.9059 16.5117 0.0000 0.0000 0.0000 28.7639 28.0677 6.2694 -0.0001 -0.0477 0.1310 1.0881 -21.1115 -19.6709 -0.0268 -1.0574 2.9069 7.3859 1.1308 -1.1238 0.9381 1.9996 -11.3106 -3.2660 0.3147 -11.3439 -7.7126 -11.6178 -6.6529 11.6304 -17.3052 17.0741 3.2991 -7.9133 8.0737 0.0000 0.0000 0.0000 -91.0901 14.1443 1.3166 12.2238 -20.1394 -2.1787 -0.0000 -0.0000 22.7840 18.8224 -10.3229 -3.4954 -7.1250 0.0000 -0.0000 -5.8155 19.1176 3.6087 0.0000 0.0000 0.0000 93.3010 -12.5682 -1.3183 -13.6235 22.1939 -2.6843 0.0000 0.0000 41.2323 9.7688 -30.5062 -4.9949 7.1250 -0.0000 -0.0000 43.0926 -55.0426 -12.3042
